<svg
xmlns="http://www.w3.org/2000/svg"
fill="none"
viewBox="0 0 120 114"
>
<g filter="url(#no-space_svg__a)">
  <path
    fill="url(#no-space_svg__b)"
    d="M91.5 83.528C91.5 102.014 77.397 117 60 117s-31.5-14.986-31.5-33.472S42.603 50.056 60 50.056s31.5 14.986 31.5 33.472"
  ></path>
</g>
<g filter="url(#no-space_svg__c)">
  <path
    fill="#0F1114"
    d="M121.464 125.595c0 33.927-27.518 61.429-61.464 61.429s-61.464-27.502-61.464-61.429c0-33.926 27.518-61.43 61.464-61.43s61.464 27.504 61.464 61.43"
  ></path>
</g>
<g
  fill-rule="evenodd"
  clip-rule="evenodd"
  filter="url(#no-space_svg__d)"
>
  <path
    fill="url(#no-space_svg__e)"
    d="M60 64.728c-33.635 0-60.902 27.252-60.902 60.867 0 33.616 27.267 60.867 60.902 60.867s60.902-27.251 60.902-60.867S93.635 64.728 60 64.728m-62.027 60.867c0-34.237 27.77-61.992 62.027-61.992 34.256 0 62.027 27.755 62.027 61.992S94.257 187.587 60 187.587c-34.256 0-62.027-27.755-62.027-61.992"
  ></path>
  <path
    fill="url(#no-space_svg__f)"
    d="M60 64.728c-33.635 0-60.902 27.252-60.902 60.867 0 33.616 27.267 60.867 60.902 60.867s60.902-27.251 60.902-60.867S93.635 64.728 60 64.728m-62.027 60.867c0-34.237 27.77-61.992 62.027-61.992 34.256 0 62.027 27.755 62.027 61.992S94.257 187.587 60 187.587c-34.256 0-62.027-27.755-62.027-61.992"
  ></path>
</g>
<path
  fill="#fff"
  fill-rule="evenodd"
  d="M49.003 54.203V20.578h1.125v33.507l46.567 18.163-.409 1.048-46.618-18.183L26.213 74.36l-.714-.87z"
  clip-rule="evenodd"
></path>
<g filter="url(#no-space_svg__g)">
  <path
    fill="#0F1114"
    fill-opacity="0.8"
    d="m25.724 39.713 23.69-19.509L96.282 35.51l17.327 12.593-17.327 14.178v10.652l-24.13 21.288L25.724 73.96v-10.5l-8.451-3.338z"
  ></path>
</g>
<g
  fill-rule="evenodd"
  clip-rule="evenodd"
  filter="url(#no-space_svg__h)"
>
  <path
    fill="url(#no-space_svg__i)"
    d="M49.056 19.77a.56.56 0 0 1 .532-.1l46.869 15.306a.6.6 0 0 1 .156.08l17.327 12.592a.562.562 0 0 1 .025.89l-17.12 14.01v10.385c0 .161-.07.315-.19.422l-24.13 21.288a.56.56 0 0 1-.598.094L25.5 74.475a.56.56 0 0 1-.338-.516V63.843l-8.095-3.198a.56.56 0 0 1-.313-.739l8.451-20.408a.56.56 0 0 1 .162-.219zm-22.77 44.517v9.304L71.59 93.362V64.256L67.51 76.25a.56.56 0 0 1-.154.234l-2.818 2.574a.56.56 0 0 1-.586.107zm45.304-3.525v-2.077l-6.187 18.06 1.088-.994zm-7.773 17.142 7.62-22.244-45.394-15.246-8.032 19.395zM26.864 39.503l45.172 15.172 23.096-18.949-45.6-14.891zm69.44-3.282 16.384 11.909-24.957 20.422-14.716-13.226zm-23.59 20.348v.744l12.653 11.418h.88zm0 2.26 12.06 10.882a.56.56 0 0 0 .377.145h2.563a.56.56 0 0 0 .356-.128l7.65-6.26v9.211L72.715 92.975z"
  ></path>
  <path
    fill="url(#no-space_svg__j)"
    d="M49.056 19.77a.56.56 0 0 1 .532-.1l46.869 15.306a.6.6 0 0 1 .156.08l17.327 12.592a.562.562 0 0 1 .025.89l-17.12 14.01v10.385c0 .161-.07.315-.19.422l-24.13 21.288a.56.56 0 0 1-.598.094L25.5 74.475a.56.56 0 0 1-.338-.516V63.843l-8.095-3.198a.56.56 0 0 1-.313-.739l8.451-20.408a.56.56 0 0 1 .162-.219zm-22.77 44.517v9.304L71.59 93.362V64.256L67.51 76.25a.56.56 0 0 1-.154.234l-2.818 2.574a.56.56 0 0 1-.586.107zm45.304-3.525v-2.077l-6.187 18.06 1.088-.994zm-7.773 17.142 7.62-22.244-45.394-15.246-8.032 19.395zM26.864 39.503l45.172 15.172 23.096-18.949-45.6-14.891zm69.44-3.282 16.384 11.909-24.957 20.422-14.716-13.226zm-23.59 20.348v.744l12.653 11.418h.88zm0 2.26 12.06 10.882a.56.56 0 0 0 .377.145h2.563a.56.56 0 0 0 .356-.128l7.65-6.26v9.211L72.715 92.975z"
  ></path>
</g>
<path
  fill="url(#no-space_svg__k)"
  fill-rule="evenodd"
  d="M101.312 73.688c-2.518 2.023-4.77 5.03-6.57 7.796a.375.375 0 0 1-.628-.409c1.81-2.784 4.115-5.872 6.728-7.972 2.614-2.1 5.609-3.265 8.745-2.027.799.316 1.833 1.07 2.756 2.164a9.95 9.95 0 0 1 2.136 4.33.375.375 0 1 1-.733.156 9.2 9.2 0 0 0-1.976-4.003c-.866-1.027-1.804-1.69-2.459-1.95-2.773-1.095-5.482-.108-7.999 1.915"
  clip-rule="evenodd"
></path>
<g filter="url(#no-space_svg__l)">
  <path
    fill="url(#no-space_svg__m)"
    d="m88.27 109.44-1.885-17.479L98.39 76.448 84.148 91.1l-.35 16.617a2.6 2.6 0 0 0-.24.99c-.013.342.042.681.162.996s.302.6.535.836a2.3 2.3 0 0 0 1.787.687c.331-.019.657-.108.957-.262.3-.153.567-.368.786-.63s.384-.567.486-.894"
  ></path>
</g>
<path
  fill="url(#no-space_svg__n)"
  fill-rule="evenodd"
  d="M98.883 75.881a.75.75 0 0 0-1.03.044l-2.657 2.734a42.97 42.97 0 0 0-12.145 28.895 3.4 3.4 0 0 0-.242 1.124c-.017.441.054.881.21 1.292s.394.784.702 1.096a3.07 3.07 0 0 0 2.365.909 3.2 3.2 0 0 0 1.255-.343 3.3 3.3 0 0 0 1.646-1.969l-.716-.223a2.6 2.6 0 0 1-.486.894 2.5 2.5 0 0 1-.786.63c-.3.154-.625.243-.956.262a2.3 2.3 0 0 1-1.788-.687 2.4 2.4 0 0 1-.535-.836 2.5 2.5 0 0 1-.161-.996c.013-.341.094-.678.239-.99a42.22 42.22 0 0 1 11.935-28.535l2.658-2.734-1.247 1.61a44 44 0 0 0-2.11 2.975 43.63 43.63 0 0 0-6.763 28.407l.746-.081a42.88 42.88 0 0 1 8.72-30.842l1.247-1.61a.75.75 0 0 0-.101-1.026"
  clip-rule="evenodd"
></path>
<g filter="url(#no-space_svg__o)">
  <path
    fill="url(#no-space_svg__p)"
    d="M99.913 14.542a5.367 5.367 0 1 1 9.27-5.41 5.367 5.367 0 0 1-9.27 5.41"
  ></path>
</g>
<path
  fill="url(#no-space_svg__q)"
  d="M99.913 14.542a5.367 5.367 0 1 1 9.27-5.41 5.367 5.367 0 0 1-9.27 5.41"
></path>
<path
  fill="#fff"
  fill-rule="evenodd"
  d="M106.969 15.987a4.804 4.804 0 1 0-4.841-8.3 4.804 4.804 0 0 0 4.841 8.3m2.7-7.139a5.93 5.93 0 1 1-10.242 5.978 5.93 5.93 0 0 1 10.242-5.978"
  clip-rule="evenodd"
></path>
<g filter="url(#no-space_svg__r)">
  <path
    fill="#0F1114"
    fill-opacity="0.8"
    d="M108.63 106.603c-1.733 2.287-6.246 1.785-10.081-1.121s-5.54-7.115-3.806-9.402 6.246-1.785 10.081 1.12c3.835 2.907 5.539 7.116 3.806 9.403"
  ></path>
</g>
<g
  fill-rule="evenodd"
  clip-rule="evenodd"
  filter="url(#no-space_svg__s)"
>
  <path
    fill="url(#no-space_svg__t)"
    d="M98.933 95.252c-1.72-.191-3.043.245-3.742 1.168s-.761 2.313-.112 3.918c.645 1.592 1.96 3.294 3.81 4.696s3.844 2.207 5.551 2.397c1.721.191 3.043-.245 3.742-1.168s.762-2.313.112-3.918c-.645-1.592-1.959-3.294-3.809-4.696s-3.844-2.207-5.552-2.397m.124-1.118c1.942.216 4.123 1.115 6.107 2.618 1.984 1.504 3.44 3.36 4.173 5.171.728 1.798.775 3.656-.258 5.02-1.034 1.364-2.835 1.82-4.763 1.606-1.942-.216-4.122-1.115-6.107-2.618-1.984-1.504-3.44-3.36-4.172-5.171-.728-1.798-.776-3.656.258-5.02 1.033-1.364 2.835-1.82 4.763-1.606"
  ></path>
  <path
    fill="url(#no-space_svg__u)"
    d="M98.933 95.252c-1.72-.191-3.043.245-3.742 1.168s-.761 2.313-.112 3.918c.645 1.592 1.96 3.294 3.81 4.696s3.844 2.207 5.551 2.397c1.721.191 3.043-.245 3.742-1.168s.762-2.313.112-3.918c-.645-1.592-1.959-3.294-3.809-4.696s-3.844-2.207-5.552-2.397m.124-1.118c1.942.216 4.123 1.115 6.107 2.618 1.984 1.504 3.44 3.36 4.173 5.171.728 1.798.775 3.656-.258 5.02-1.034 1.364-2.835 1.82-4.763 1.606-1.942-.216-4.122-1.115-6.107-2.618-1.984-1.504-3.44-3.36-4.172-5.171-.728-1.798-.776-3.656.258-5.02 1.033-1.364 2.835-1.82 4.763-1.606"
  ></path>
</g>
<g filter="url(#no-space_svg__v)">
  <path
    fill="#0F1114"
    fill-opacity="0.8"
    d="M38.626 92.898c2.693 4.663-1.464 12.104-9.285 16.619s-16.343 4.395-19.035-.268c-2.693-4.664 1.464-12.105 9.285-16.62s16.343-4.395 19.035.269"
  ></path>
</g>
<g
  fill-rule="evenodd"
  clip-rule="evenodd"
  filter="url(#no-space_svg__w)"
>
  <path
    fill="url(#no-space_svg__x)"
    d="M11.497 101.157c-1.63 2.917-1.912 5.718-.704 7.81s3.775 3.248 7.115 3.296c3.327.047 7.314-1.017 11.152-3.233 3.838-2.215 6.752-5.136 8.375-8.041 1.63-2.917 1.912-5.718.704-7.81s-3.775-3.248-7.115-3.295c-3.328-.047-7.314 1.016-11.152 3.232s-6.752 5.137-8.375 8.041m-.982-.548c1.737-3.11 4.811-6.168 8.794-8.467s8.168-3.434 11.73-3.383c3.55.05 6.59 1.286 8.075 3.857s1.034 5.823-.697 8.921c-1.737 3.111-4.812 6.168-8.795 8.468s-8.167 3.433-11.73 3.383c-3.548-.051-6.589-1.286-8.074-3.858s-1.034-5.823.697-8.921"
  ></path>
  <path
    fill="url(#no-space_svg__y)"
    d="M11.497 101.157c-1.63 2.917-1.912 5.718-.704 7.81s3.775 3.248 7.115 3.296c3.327.047 7.314-1.017 11.152-3.233 3.838-2.215 6.752-5.136 8.375-8.041 1.63-2.917 1.912-5.718.704-7.81s-3.775-3.248-7.115-3.295c-3.328-.047-7.314 1.016-11.152 3.232s-6.752 5.137-8.375 8.041m-.982-.548c1.737-3.11 4.811-6.168 8.794-8.467s8.168-3.434 11.73-3.383c3.55.05 6.59 1.286 8.075 3.857s1.034 5.823-.697 8.921c-1.737 3.111-4.812 6.168-8.795 8.468s-8.167 3.433-11.73 3.383c-3.548-.051-6.589-1.286-8.074-3.858s-1.034-5.823.697-8.921"
  ></path>
</g>
<path
  fill="url(#no-space_svg__z)"
  fill-rule="evenodd"
  d="M1.287 101.865c.183.097.41.027.507-.156C6.954 91.961 11.838 84.563 16.4 79.22c4.566-5.345 8.794-8.613 12.636-10.132a.375.375 0 1 0-.276-.697c-4 1.581-8.322 4.948-12.93 10.342-4.61 5.398-9.524 12.847-14.7 22.625a.375.375 0 0 0 .156.507"
  clip-rule="evenodd"
></path>
<g filter="url(#no-space_svg__A)">
  <path
    fill="url(#no-space_svg__B)"
    d="m58.116 63.822-17.942-3.11L23.34 72.095l16.09-13.75 17.201.74c.332-.129.686-.19 1.04-.181s.7.088 1.018.233c.318.144.6.351.83.608a2.4 2.4 0 0 1 .59 1.893 2.5 2.5 0 0 1-.334.971c-.178.3-.418.562-.703.771-.286.209-.611.36-.957.443"
  ></path>
</g>
<path fill="#fff" d="M58.235 63.79a.5.5 0 0 1-.24.011"></path>
<path
  fill="url(#no-space_svg__C)"
  fill-rule="evenodd"
  d="M22.744 72.548a.75.75 0 0 1 .11-1.025l3.161-2.702a45.1 45.1 0 0 1 30.437-10.798l-.02.75a44.35 44.35 0 0 0-29.93 10.619l-3.161 2.702 1.849-1.25a45 45 0 0 1 2.957-1.838 44.9 44.9 0 0 1 29.848-5.205q.122.022.24-.01a2.7 2.7 0 0 0 .837-.412c.286-.209.525-.471.704-.77s.292-.63.334-.972a2.4 2.4 0 0 0-.09-1.01 2.4 2.4 0 0 0-.501-.883 2.5 2.5 0 0 0-.829-.608c-.286-.13-.551-.173-.886-.226l-.112-.017c-.44-.071-.568-.079-1.215-.118l-.044-.003.045-.748.05.003c.647.039.806.048 1.283.125l.113.018c.325.05.692.108 1.077.283.411.187.778.456 1.078.792a3.16 3.16 0 0 1 .776 2.484 3.2 3.2 0 0 1-.435 1.263 3.35 3.35 0 0 1-.905.992 3.4 3.4 0 0 1-1.07.527 1.3 1.3 0 0 1-.578.03 44.14 44.14 0 0 0-32.257 6.923l-1.85 1.25a.75.75 0 0 1-1.016-.166"
  clip-rule="evenodd"
></path>
<defs>
  <linearGradient
    id="no-space_svg__b"
    x1="26.361"
    x2="86.985"
    y1="98.956"
    y2="95.375"
    gradientUnits="userSpaceOnUse"
  >
    <stop stop-color="#EC7F3C"></stop>
    <stop offset="0.498" stop-color="#CB96EB"></stop>
    <stop offset="1" stop-color="#1E5DFF"></stop>
  </linearGradient>
  <linearGradient
    id="no-space_svg__e"
    x1="-2.709"
    x2="142.675"
    y1="116.67"
    y2="136.341"
    gradientUnits="userSpaceOnUse"
  >
    <stop stop-color="#1E5DFF"></stop>
    <stop offset="0.589" stop-color="#CB96EB"></stop>
    <stop offset="1" stop-color="#EC7F3C"></stop>
  </linearGradient>
  <linearGradient
    id="no-space_svg__f"
    x1="59.377"
    x2="38.229"
    y1="68.782"
    y2="179.675"
    gradientUnits="userSpaceOnUse"
  >
    <stop stop-color="#fff"></stop>
    <stop offset="1" stop-color="#fff" stop-opacity="0"></stop>
  </linearGradient>
  <linearGradient
    id="no-space_svg__i"
    x1="16.297"
    x2="128.831"
    y1="51.836"
    y2="71.643"
    gradientUnits="userSpaceOnUse"
  >
    <stop stop-color="#1E5DFF"></stop>
    <stop offset="0.589" stop-color="#CB96EB"></stop>
    <stop offset="1" stop-color="#EC7F3C"></stop>
  </linearGradient>
  <linearGradient
    id="no-space_svg__j"
    x1="64.953"
    x2="55.016"
    y1="22.985"
    y2="90.766"
    gradientUnits="userSpaceOnUse"
  >
    <stop stop-color="#fff"></stop>
    <stop offset="1" stop-color="#fff" stop-opacity="0"></stop>
  </linearGradient>
  <linearGradient
    id="no-space_svg__m"
    x1="94.837"
    x2="81.52"
    y1="75.081"
    y2="109.71"
    gradientUnits="userSpaceOnUse"
  >
    <stop stop-color="#1E5DFF"></stop>
    <stop offset="0.495" stop-color="#CB96EB"></stop>
    <stop offset="1" stop-color="#EC7F3C"></stop>
  </linearGradient>
  <linearGradient
    id="no-space_svg__n"
    x1="84.972"
    x2="98.569"
    y1="111.41"
    y2="76.157"
    gradientUnits="userSpaceOnUse"
  >
    <stop stop-color="#1E5DFF"></stop>
    <stop offset="0.498" stop-color="#CB96EB"></stop>
    <stop offset="1" stop-color="#EC7F3C"></stop>
  </linearGradient>
  <linearGradient
    id="no-space_svg__p"
    x1="100.401"
    x2="106.09"
    y1="9.544"
    y2="17.874"
    gradientUnits="userSpaceOnUse"
  >
    <stop offset="0.098" stop-color="#EC7F3C"></stop>
    <stop offset="0.503" stop-color="#CB96EB"></stop>
    <stop offset="1" stop-color="#1E5DFF"></stop>
  </linearGradient>
  <linearGradient
    id="no-space_svg__q"
    x1="100.401"
    x2="106.09"
    y1="9.544"
    y2="17.874"
    gradientUnits="userSpaceOnUse"
  >
    <stop offset="0.098" stop-color="#EC7F3C"></stop>
    <stop offset="0.503" stop-color="#CB96EB"></stop>
    <stop offset="1" stop-color="#1E5DFF"></stop>
  </linearGradient>
  <linearGradient
    id="no-space_svg__t"
    x1="96.035"
    x2="107.176"
    y1="108.88"
    y2="98.566"
    gradientUnits="userSpaceOnUse"
  >
    <stop stop-color="#1E5DFF"></stop>
    <stop offset="0.373" stop-color="#CB96EB"></stop>
    <stop
      offset="0.66"
      stop-color="#EC7F3C"
      stop-opacity="0"
    ></stop>
  </linearGradient>
  <linearGradient
    id="no-space_svg__u"
    x1="102.406"
    x2="102.151"
    y1="109.713"
    y2="97.44"
    gradientUnits="userSpaceOnUse"
  >
    <stop offset="0.019" stop-color="#fff"></stop>
    <stop offset="1" stop-color="#fff" stop-opacity="0"></stop>
  </linearGradient>
  <linearGradient
    id="no-space_svg__x"
    x1="33.386"
    x2="23.665"
    y1="116.342"
    y2="89.556"
    gradientUnits="userSpaceOnUse"
  >
    <stop stop-color="#1E5DFF"></stop>
    <stop offset="0.373" stop-color="#CB96EB"></stop>
    <stop
      offset="0.66"
      stop-color="#EC7F3C"
      stop-opacity="0"
    ></stop>
  </linearGradient>
  <linearGradient
    id="no-space_svg__y"
    x1="39.468"
    x2="18.056"
    y1="105.929"
    y2="97.427"
    gradientUnits="userSpaceOnUse"
  >
    <stop offset="0.019" stop-color="#fff"></stop>
    <stop offset="1" stop-color="#fff" stop-opacity="0"></stop>
  </linearGradient>
  <linearGradient
    id="no-space_svg__z"
    x1="17.228"
    x2="31.83"
    y1="107.86"
    y2="55.62"
    gradientUnits="userSpaceOnUse"
  >
    <stop stop-color="#fff" stop-opacity="0"></stop>
    <stop offset="1" stop-color="#fff"></stop>
  </linearGradient>
  <linearGradient
    id="no-space_svg__B"
    x1="22.164"
    x2="58.843"
    y1="68.329"
    y2="56.862"
    gradientUnits="userSpaceOnUse"
  >
    <stop stop-color="#1E5DFF"></stop>
    <stop offset="0.495" stop-color="#CB96EB"></stop>
    <stop offset="1" stop-color="#EC7F3C"></stop>
  </linearGradient>
  <linearGradient
    id="no-space_svg__C"
    x1="60.372"
    x2="23.029"
    y1="60.543"
    y2="72.258"
    gradientUnits="userSpaceOnUse"
  >
    <stop stop-color="#1E5DFF"></stop>
    <stop offset="0.498" stop-color="#CB96EB"></stop>
    <stop offset="1" stop-color="#EC7F3C"></stop>
  </linearGradient>
  <filter
    id="no-space_svg__a"
    width="111"
    height="114.944"
    x="4.5"
    y="26.056"
    color-interpolation-filters="sRGB"
    filterUnits="userSpaceOnUse"
  >
    <feFlood
      flood-opacity="0"
      result="BackgroundImageFix"
    ></feFlood>
    <feBlend
      in="SourceGraphic"
      in2="BackgroundImageFix"
      result="shape"
    ></feBlend>
    <feGaussianBlur
      result="effect1_foregroundBlur_236_7523"
      stdDeviation="12"
    ></feGaussianBlur>
  </filter>
  <filter
    id="no-space_svg__c"
    width="125.928"
    height="125.859"
    x="-2.964"
    y="62.666"
    color-interpolation-filters="sRGB"
    filterUnits="userSpaceOnUse"
  >
    <feFlood
      flood-opacity="0"
      result="BackgroundImageFix"
    ></feFlood>
    <feGaussianBlur
      in="BackgroundImageFix"
      stdDeviation="0.75"
    ></feGaussianBlur>
    <feComposite
      in2="SourceAlpha"
      operator="in"
      result="effect1_backgroundBlur_236_7523"
    ></feComposite>
    <feBlend
      in="SourceGraphic"
      in2="effect1_backgroundBlur_236_7523"
      result="shape"
    ></feBlend>
  </filter>
  <filter
    id="no-space_svg__d"
    width="127.053"
    height="126.984"
    x="-3.527"
    y="62.103"
    color-interpolation-filters="sRGB"
    filterUnits="userSpaceOnUse"
  >
    <feFlood
      flood-opacity="0"
      result="BackgroundImageFix"
    ></feFlood>
    <feGaussianBlur
      in="BackgroundImageFix"
      stdDeviation="0.75"
    ></feGaussianBlur>
    <feComposite
      in2="SourceAlpha"
      operator="in"
      result="effect1_backgroundBlur_236_7523"
    ></feComposite>
    <feBlend
      in="SourceGraphic"
      in2="effect1_backgroundBlur_236_7523"
      result="shape"
    ></feBlend>
  </filter>
  <filter
    id="no-space_svg__g"
    width="99.336"
    height="77.017"
    x="15.773"
    y="18.704"
    color-interpolation-filters="sRGB"
    filterUnits="userSpaceOnUse"
  >
    <feFlood
      flood-opacity="0"
      result="BackgroundImageFix"
    ></feFlood>
    <feGaussianBlur
      in="BackgroundImageFix"
      stdDeviation="0.75"
    ></feGaussianBlur>
    <feComposite
      in2="SourceAlpha"
      operator="in"
      result="effect1_backgroundBlur_236_7523"
    ></feComposite>
    <feBlend
      in="SourceGraphic"
      in2="effect1_backgroundBlur_236_7523"
      result="shape"
    ></feBlend>
  </filter>
  <filter
    id="no-space_svg__h"
    width="100.461"
    height="78.142"
    x="15.21"
    y="18.142"
    color-interpolation-filters="sRGB"
    filterUnits="userSpaceOnUse"
  >
    <feFlood
      flood-opacity="0"
      result="BackgroundImageFix"
    ></feFlood>
    <feGaussianBlur
      in="BackgroundImageFix"
      stdDeviation="0.75"
    ></feGaussianBlur>
    <feComposite
      in2="SourceAlpha"
      operator="in"
      result="effect1_backgroundBlur_236_7523"
    ></feComposite>
    <feBlend
      in="SourceGraphic"
      in2="effect1_backgroundBlur_236_7523"
      result="shape"
    ></feBlend>
  </filter>
  <filter
    id="no-space_svg__l"
    width="22.834"
    height="42.783"
    x="79.557"
    y="72.448"
    color-interpolation-filters="sRGB"
    filterUnits="userSpaceOnUse"
  >
    <feFlood
      flood-opacity="0"
      result="BackgroundImageFix"
    ></feFlood>
    <feBlend
      in="SourceGraphic"
      in2="BackgroundImageFix"
      result="shape"
    ></feBlend>
    <feGaussianBlur
      result="effect1_foregroundBlur_236_7523"
      stdDeviation="2"
    ></feGaussianBlur>
  </filter>
  <filter
    id="no-space_svg__o"
    width="22.736"
    height="22.736"
    x="93.18"
    y="0.469"
    color-interpolation-filters="sRGB"
    filterUnits="userSpaceOnUse"
  >
    <feFlood
      flood-opacity="0"
      result="BackgroundImageFix"
    ></feFlood>
    <feBlend
      in="SourceGraphic"
      in2="BackgroundImageFix"
      result="shape"
    ></feBlend>
    <feGaussianBlur
      result="effect1_foregroundBlur_236_7523"
      stdDeviation="3"
    ></feGaussianBlur>
  </filter>
  <filter
    id="no-space_svg__r"
    width="18.243"
    height="16.392"
    x="92.565"
    y="93.146"
    color-interpolation-filters="sRGB"
    filterUnits="userSpaceOnUse"
  >
    <feFlood
      flood-opacity="0"
      result="BackgroundImageFix"
    ></feFlood>
    <feGaussianBlur
      in="BackgroundImageFix"
      stdDeviation="0.75"
    ></feGaussianBlur>
    <feComposite
      in2="SourceAlpha"
      operator="in"
      result="effect1_backgroundBlur_236_7523"
    ></feComposite>
    <feBlend
      in="SourceGraphic"
      in2="effect1_backgroundBlur_236_7523"
      result="shape"
    ></feBlend>
  </filter>
  <filter
    id="no-space_svg__s"
    width="19.368"
    height="17.516"
    x="92.003"
    y="92.584"
    color-interpolation-filters="sRGB"
    filterUnits="userSpaceOnUse"
  >
    <feFlood
      flood-opacity="0"
      result="BackgroundImageFix"
    ></feFlood>
    <feGaussianBlur
      in="BackgroundImageFix"
      stdDeviation="0.75"
    ></feGaussianBlur>
    <feComposite
      in2="SourceAlpha"
      operator="in"
      result="effect1_backgroundBlur_236_7523"
    ></feComposite>
    <feBlend
      in="SourceGraphic"
      in2="effect1_backgroundBlur_236_7523"
      result="shape"
    ></feBlend>
  </filter>
  <filter
    id="no-space_svg__v"
    width="32.96"
    height="26.507"
    x="7.986"
    y="87.82"
    color-interpolation-filters="sRGB"
    filterUnits="userSpaceOnUse"
  >
    <feFlood
      flood-opacity="0"
      result="BackgroundImageFix"
    ></feFlood>
    <feGaussianBlur
      in="BackgroundImageFix"
      stdDeviation="0.75"
    ></feGaussianBlur>
    <feComposite
      in2="SourceAlpha"
      operator="in"
      result="effect1_backgroundBlur_236_7523"
    ></feComposite>
    <feBlend
      in="SourceGraphic"
      in2="effect1_backgroundBlur_236_7523"
      result="shape"
    ></feBlend>
  </filter>
  <filter
    id="no-space_svg__w"
    width="34.086"
    height="27.632"
    x="7.423"
    y="87.257"
    color-interpolation-filters="sRGB"
    filterUnits="userSpaceOnUse"
  >
    <feFlood
      flood-opacity="0"
      result="BackgroundImageFix"
    ></feFlood>
    <feGaussianBlur
      in="BackgroundImageFix"
      stdDeviation="0.75"
    ></feGaussianBlur>
    <feComposite
      in2="SourceAlpha"
      operator="in"
      result="effect1_backgroundBlur_236_7523"
    ></feComposite>
    <feBlend
      in="SourceGraphic"
      in2="effect1_backgroundBlur_236_7523"
      result="shape"
    ></feBlend>
  </filter>
  <filter
    id="no-space_svg__A"
    width="46.788"
    height="23.75"
    x="18.341"
    y="53.343"
    color-interpolation-filters="sRGB"
    filterUnits="userSpaceOnUse"
  >
    <feFlood
      flood-opacity="0"
      result="BackgroundImageFix"
    ></feFlood>
    <feBlend
      in="SourceGraphic"
      in2="BackgroundImageFix"
      result="shape"
    ></feBlend>
    <feGaussianBlur
      result="effect1_foregroundBlur_236_7523"
      stdDeviation="2.5"
    ></feGaussianBlur>
  </filter>
  <radialGradient
    id="no-space_svg__k"
    cx="0"
    cy="0"
    r="1"
    gradientTransform="rotate(-171.903 61.632 35.186)scale(20.0984 16.4209)"
    gradientUnits="userSpaceOnUse"
  >
    <stop
      offset="0.176"
      stop-color="#fff"
      stop-opacity="0"
    ></stop>
    <stop offset="1" stop-color="#fff"></stop>
  </radialGradient>
</defs>
</svg>